<mxfile host="app.diagrams.net" modified="2024-07-20T08:20:10.576Z" agent="Mozilla/5.0 (Macintosh; Intel Mac OS X 10_15_7) AppleWebKit/537.36 (KHTML, like Gecko) Chrome/126.0.0.0 Safari/537.36" version="24.7.2" etag="BLp8gH_b2xUC1ABLvvse" type="github">
  <diagram name="Page-1" id="vbZf0L35-jOstP1zGbPe">
    <mxGraphModel>
      <root>
        <mxCell id="0" />
        <mxCell id="1" parent="0" />
      </root>
    </mxGraphModel>
  </diagram>
</mxfile>
